# xmcd
#
# Track frame offsets: 
#        150
#        15849
#        37307
#        61066
#        84949
#        106004
#        130748
#        157071
#        181978
#        208858
#        227139
#        242547
#        278901
#
# Disc length: 4149 seconds
#
# Revision: 0
# Processed by: cddbd v1.5.2PL0 Copyright (c) Steve Scherf et al.
# Submitted via: ExactAudioCopyFreeDBPlugin 1.0
#
DISCID=a310330d
DTITLE=Terry Quiett Band - Taking Sides
DYEAR=2014
DGENRE=Blues
TTITLE0=Come The Morning
TTITLE1=Nothing At All
TTITLE2=Cut The Rope
TTITLE3=Wheelhouse Blues
TTITLE4=Voodoo Queen
TTITLE5=Weak-Minded Man
TTITLE6=A Fool Should Know
TTITLE7=Two Hearts
TTITLE8=Gimme Some
TTITLE9=I Come Running
TTITLE10=Get Back On
TTITLE11=You Can't Come Back
TTITLE12=Let's Get It On (Bonus Track)
EXTD=
EXTT0=
EXTT1=
EXTT2=
EXTT3=
EXTT4=
EXTT5=
EXTT6=
EXTT7=
EXTT8=
EXTT9=
EXTT10=
EXTT11=
EXTT12=
PLAYORDER=
